<svg width="680" height="680" viewBox="0 0 680 680" fill="none" xmlns="http://www.w3.org/2000/svg">
<g filter="url(#filter0_dii_6924_3502)">
<path fill-rule="evenodd" clip-rule="evenodd" d="M660 320C660 496.731 516.731 640 340 640C163.269 640 20 496.731 20 320C20 143.269 163.269 0 340 0C516.731 0 660 143.269 660 320ZM270.652 280.652C270.652 323.454 235.954 358.152 193.152 358.152C150.35 358.152 115.653 323.454 115.653 280.652C115.653 237.85 150.35 203.152 193.152 203.152C235.954 203.152 270.652 237.85 270.652 280.652ZM300.652 544.35C343.454 544.35 378.152 509.65 378.152 466.848C378.152 424.046 343.454 389.348 300.652 389.348C257.85 389.348 223.152 424.046 223.152 466.848C223.152 509.65 257.85 544.35 300.652 544.35ZM456.848 173.152C456.848 215.954 422.15 250.652 379.348 250.652C336.546 250.652 301.848 215.954 301.848 173.152C301.848 130.35 336.546 95.652 379.348 95.652C422.15 95.652 456.848 130.35 456.848 173.152ZM486.848 436.848C529.65 436.848 564.35 402.15 564.35 359.348C564.35 316.546 529.65 281.848 486.848 281.848C444.046 281.848 409.348 316.546 409.348 359.348C409.348 402.15 444.046 436.848 486.848 436.848Z" fill="url(#paint0_linear_6924_3502)"/>
</g>
<defs>
<filter id="filter0_dii_6924_3502" x="0" y="-4" width="680" height="684" filterUnits="userSpaceOnUse" color-interpolation-filters="sRGB">
<feFlood flood-opacity="0" result="BackgroundImageFix"/>
<feColorMatrix in="SourceAlpha" type="matrix" values="0 0 0 0 0 0 0 0 0 0 0 0 0 0 0 0 0 0 127 0" result="hardAlpha"/>
<feOffset dy="20"/>
<feGaussianBlur stdDeviation="10"/>
<feComposite in2="hardAlpha" operator="out"/>
<feColorMatrix type="matrix" values="0 0 0 0 0 0 0 0 0 0 0 0 0 0 0 0 0 0 0.21 0"/>
<feBlend mode="normal" in2="BackgroundImageFix" result="effect1_dropShadow_6924_3502"/>
<feBlend mode="normal" in="SourceGraphic" in2="effect1_dropShadow_6924_3502" result="shape"/>
<feColorMatrix in="SourceAlpha" type="matrix" values="0 0 0 0 0 0 0 0 0 0 0 0 0 0 0 0 0 0 127 0" result="hardAlpha"/>
<feOffset dy="5"/>
<feGaussianBlur stdDeviation="7.5"/>
<feComposite in2="hardAlpha" operator="arithmetic" k2="-1" k3="1"/>
<feColorMatrix type="matrix" values="0 0 0 0 0 0 0 0 0 0 0 0 0 0 0 0 0 0 0.33 0"/>
<feBlend mode="normal" in2="shape" result="effect2_innerShadow_6924_3502"/>
<feColorMatrix in="SourceAlpha" type="matrix" values="0 0 0 0 0 0 0 0 0 0 0 0 0 0 0 0 0 0 127 0" result="hardAlpha"/>
<feOffset dy="-4"/>
<feGaussianBlur stdDeviation="7.5"/>
<feComposite in2="hardAlpha" operator="arithmetic" k2="-1" k3="1"/>
<feColorMatrix type="matrix" values="0 0 0 0 1 0 0 0 0 1 0 0 0 0 1 0 0 0 1 0"/>
<feBlend mode="normal" in2="effect2_innerShadow_6924_3502" result="effect3_innerShadow_6924_3502"/>
</filter>
<linearGradient id="paint0_linear_6924_3502" x1="340" y1="0" x2="340" y2="640" gradientUnits="userSpaceOnUse">
<stop stop-color="#FCFCFB"/>
<stop offset="1" stop-color="#F1EFEC"/>
</linearGradient>
</defs>
</svg>
