<svg width="15" height="14" viewBox="0 0 15 14" fill="none" xmlns="http://www.w3.org/2000/svg">
<path d="M0 7C0 6.40169 0.501174 5.91667 1.1194 5.91667C1.73763 5.91667 2.23881 6.40169 2.23881 7V12.4167C2.23881 13.015 1.73763 13.5 1.1194 13.5C0.501174 13.5 0 13.015 0 12.4167V7Z" fill="#FF453A"/>
<path d="M4.25373 4.83333C4.25373 4.23502 4.75491 3.75 5.37313 3.75C5.99136 3.75 6.49254 4.23502 6.49254 4.83333V12.4167C6.49254 13.015 5.99136 13.5 5.37313 13.5C4.75491 13.5 4.25373 13.015 4.25373 12.4167V4.83333Z" fill="#FF453A"/>
<path d="M8.50746 1.58333C8.50746 0.985025 9.00864 0.5 9.62687 0.5C10.2451 0.5 10.7463 0.985025 10.7463 1.58333V12.4167C10.7463 13.015 10.2451 13.5 9.62687 13.5C9.00864 13.5 8.50746 13.015 8.50746 12.4167V1.58333Z" fill="#FF453A"/>
<path d="M12.7612 5.91667C12.7612 5.31836 13.2624 4.83333 13.8806 4.83333C14.4988 4.83333 15 5.31836 15 5.91667V12.4167C15 13.015 14.4988 13.5 13.8806 13.5C13.2624 13.5 12.7612 13.015 12.7612 12.4167V5.91667Z" fill="#FF453A"/>
</svg>
