<svg width="11" height="13" fill="none" xmlns="http://www.w3.org/2000/svg">
    <path fill-rule="evenodd" clip-rule="evenodd" d="M6.792 2.069c-.58.428-1.298 1.315-2.1 3.04-.055.117-.107.232-.156.347.157.132.292.283.404.429.198.257.376.56.53.881.307.639.554 1.413.67 2.165.113.725.125 1.557-.168 2.235a1.958 1.958 0 0 1-.79.926c-.386.23-.83.303-1.287.258-.633-.061-1.103-.467-1.398-.945-.294-.476-.463-1.087-.52-1.765-.056-.67-.007-1.446.172-2.308-.1.097-.2.2-.305.306l-.215.218-1.2-1.202.153-.156c.292-.3.722-.743 1.198-1.051.309-.201.683-.376 1.1-.438.084-.202.174-.408.27-.615C4.005 2.56 4.87 1.375 5.786.7c.964-.711 1.93-.816 2.81-.602.997.243 1.626.937 1.901 1.776.265.804.206 1.721-.06 2.554-.525 1.644-2.006 3.343-4.242 3.343l.003-1.7c1.263 0 2.24-.969 2.62-2.157.186-.584.19-1.124.065-1.507-.115-.347-.329-.568-.692-.657-.424-.103-.866-.074-1.398.318ZM3.878 7.385c-.203.845-.253 1.557-.207 2.11.042.502.16.831.272 1.014.065.105.112.14.13.15.167.014.23-.02.242-.027.014-.009.053-.036.097-.138.104-.24.144-.69.049-1.3a6.287 6.287 0 0 0-.583-1.809Zm.203 3.277-.006-.002c.004 0 .006.002.006.002Z" fill="#fff"/>
</svg>
