<svg width="3739" height="3739" viewBox="0 0 3739 3739" fill="none" xmlns="http://www.w3.org/2000/svg">
<path fill-rule="evenodd" clip-rule="evenodd" d="M3738.5 1869.5C3738.5 2901.72 2901.72 3738.5 1869.5 3738.5C837.282 3738.5 0.501953 2901.72 0.501953 1869.5C0.501953 837.28 837.282 0.499634 1869.5 0.499634C2901.72 0.499634 3738.5 837.28 3738.5 1869.5ZM1464.47 1639.68C1464.47 1889.67 1261.81 2092.33 1011.82 2092.33C761.827 2092.33 559.172 1889.67 559.172 1639.68C559.172 1389.69 761.827 1187.03 1011.82 1187.03C1261.81 1187.03 1464.47 1389.69 1464.47 1639.68ZM1639.69 3179.84C1889.68 3179.84 2092.34 2977.17 2092.34 2727.18C2092.34 2477.19 1889.68 2274.54 1639.69 2274.54C1389.69 2274.54 1187.04 2477.19 1187.04 2727.18C1187.04 2977.17 1389.69 3179.84 1639.69 3179.84ZM2551.97 1011.82C2551.97 1261.81 2349.31 1464.46 2099.32 1464.46C1849.33 1464.46 1646.67 1261.81 1646.67 1011.82C1646.67 761.825 1849.33 559.167 2099.32 559.167C2349.31 559.167 2551.97 761.825 2551.97 1011.82ZM2727.19 2551.96C2977.18 2551.96 3179.85 2349.31 3179.85 2099.32C3179.85 1849.33 2977.18 1646.67 2727.19 1646.67C2477.2 1646.67 2274.54 1849.33 2274.54 2099.32C2274.54 2349.31 2477.2 2551.96 2727.19 2551.96Z" fill="white"/>
</svg>
