<svg version="1.0" viewBox="211.77 142 489.23 643" xmlns="http://www.w3.org/2000/svg">
    <g fill="#00f">
        <path d="M440.3 154.7c-9.5 17.9-17.5 35.9-21.9 48.9l-3.8 11.2 2.6 3.9 2.6 4-3.6-.1-3.7-.1-1.7 7c-3.1 12.2-4.9 26.6-5.5 43.5-.7 20.1.4 29.7 9.2 87 3.5 22.8 7.4 49.1 8.6 58.5 1.5 12.3 2.6 17.7 4 19.6 1.1 1.6 1.5 2.9.9 3.5-.5.5-1.8 4.3-2.9 8.4-1 4.1-4 12.7-6.5 19-2.5 6.3-4.6 12.2-4.6 13.1 0 .9 1.1 2.8 2.5 4.3l2.4 2.6h31c26.8 0 31.2-.2 32.5-1.6.9-.8 1.6-1.9 1.6-2.4s-5.8-23.6-13-51.3c-7.1-27.7-13-51-13-51.8 0-.8 2-4.9 4.5-9.3 2.5-4.3 4.5-9.1 4.5-10.6 0-2 .6-2.9 2.3-3.4 1.6-.4 6.4-7.7 18.6-28.7l16.4-28.2-.6-17.1c-.7-22.6-3.6-38.3-11.4-62.1-5.8-17.8-19.5-48.1-24.1-53.1-.9-1-1.8-2.7-2-3.7-.3-2-10.5-19.1-13-22-.8-.9-2.5-1.7-3.8-1.7-1.9 0-3.4 2.1-9.1 12.7zm15 .7 4.8 8.3-3.6 6.2c-4 7.1-4 7.2-1.6 12.6l1.8 4 .8-4.5c.6-4.1 4.6-10 6.7-10 1 0 7.1 12 13.3 26.3 12.8 29.6 20.5 63.4 20.5 90.4v8.9l-15.6 26.7c-8.6 14.8-16 26.5-16.4 26-.4-.4-1.3-2.5-2-4.5-2.1-6.7-3-5.3-3 4.6v9.6l-5.1 9.1-5 9.2 13 50.6c7.2 27.8 13.1 51.1 13.1 51.6 0 .6-10.5.9-29 .7-17.5-.1-29-.6-29-1.2 0-.5 1.8-5.4 4-10.9s4.8-13.4 5.9-17.6c1.1-4.1 3.1-9 4.6-10.8 2.2-3 2.5-4.3 2.5-11.8l-.1-8.4-3 6.3c-1.7 3.5-3.3 6.2-3.5 5.9-.2-.2-1.5-8.7-2.9-19-1.3-10.2-5.1-36-8.4-57.4-9.7-62.5-10.6-75-7.6-100.3 1.3-11.1 3.7-25.3 5-28.7 1-2.7 5.3.9 7.9 6.6l2.6 5.6-.5-7.9c-.4-6.5-1-8.7-3.5-12.8l-3-4.9 2.6-7.7c3.2-9.3 10.3-26.1 15.1-35.7 6-12 12.4-23.5 13.1-23.5.4 0 2.9 3.8 5.5 8.4z"/>
        <path d="M449.1 218.3c-5.2 12.1-9.3 29.5-11.2 47.6-.9 9.1-.9 13.4.1 21.3 1.3 9.7 1.3 9.9-1.2 15.7-1.4 3.3-2.3 6.2-2 6.5.3.3 2 .6 3.8.6h3.2l1.2 8.7c.7 4.9 1.5 9.5 1.9 10.5.4 1.1 4.5-6.5 11.9-22l11.4-23.7-.7-8c-1.6-18.8-9-47.9-15-59.5l-1.3-2.5zm7.2 20.4c3.5 11.6 5.3 20.5 6.7 33.1l1.2 10.4-7.8 16.6c-6.2 12.9-8 16-8.4 14.1-.3-1.3-1.3-3.6-2.3-5-1.4-2.1-1.5-3.2-.7-5.5.8-2.2.7-5.4-.3-11.6-2.2-13.5 0-34.4 5.5-53.6 1.2-3.9 2.4-7.2 2.8-7.2.4 0 1.9 3.9 3.3 8.7zM681.4 213c-7.8 7.9-12 12.9-12.2 14.6-.3 1.8-.8 2.4-1.9 2-1.1-.4-4.8 2.6-11.8 9.5l-10.3 10.1-12.1-6.6c-6.6-3.6-12.9-6.6-14.1-6.6-2.9 0-34.1 32-35.5 36.4-.7 2.3-1.5 3-2.8 2.8-2.1-.4-22.7 20.2-22.7 22.7 0 2.7 18.4 27.6 20.6 27.9 1.4.2 5.2-3 12.9-11 6-6.2 15.6-16.1 21.3-22l10.4-10.7 12.1 6c13.4 6.8 12.6 6.8 21.1.2l4.9-3.7-.6 25.4c-.9 32.7-1.1 82.6-.4 83.7.3.5.2 4-.3 7.8-.5 3.9-.9 15.4-1 25.6 0 25.1-.9 23.9 18.4 23.9h14.3l4.6-3.6 4.7-3.6V325.3c0-118.2 0-118.5-2.1-121.4-1.1-1.6-2.8-2.9-3.8-2.9s-7.1 5.4-13.7 12zm13.6 70.5v77.4l-5.2 1.8c-4.8 1.7-5.3 2.2-8 8-1.5 3.5-2.8 6.5-2.8 6.8 0 .4 2.1-1.6 4.8-4.4 3.3-3.5 5.6-5.1 7.7-5.3l3-.3.3 35.4.2 35.4-3.2 2.8c-3.2 2.8-3.6 2.8-16 2.9H663v-11.8c0-6.6.3-16.7.7-22.6.6-10 .7-10.7 2.9-11.2 1.7-.4 3.8.6 8.3 4 3.3 2.5 6.2 4.6 6.5 4.6.3 0-1.1-2.6-3.2-5.9-3.3-5.1-4.3-6-9.1-7.7l-5.4-1.8.7-59.4c.6-49 .5-59.3-.6-58.6-.7.4-5 3.4-9.5 6.6-4.4 3.2-8.6 5.8-9.2 5.8-.6 0-6.6-2.8-13.3-6.1-11.2-5.6-12.6-6.1-17-5.6-2.6.3-6.1 1.6-7.8 2.8-3.5 2.6-3.4 3.4.4 1.9 1.5-.5 4.1-1 5.8-1 2.8 0 1.8 1.2-16.2 20-10.6 11-19.5 20-19.9 20-1-.1-14.1-18.7-14.1-20.2 0-.7 3.9-5.3 8.8-10.1l8.7-8.7 2 3c1.1 1.6 3.3 3.4 4.9 4 2.8 1 2.8 1 1.2-1.5-.9-1.3-1.6-4.5-1.6-7 0-4.6.1-4.7 15.6-21.1 8.6-9 16-16.4 16.4-16.4.5 0 6.8 3.2 14 7.2l13.2 7.1 10.2-10.2 10.2-10.1 2.6 5.3c2.5 5.2 2.6 5.4 1 11.2-1.1 4.3-1.3 7.1-.6 10l.8 4 .3-4.5c.3-4.5 2-9 3.3-9 1.2 0 4.1 15.5 4.9 25.7.5 6.6.3 12.2-.6 17.2-.7 4.1-1.1 7.6-.9 7.8.1.2 1.3-3.2 2.4-7.6 3.9-13.9 2.1-37.9-4.3-58l-2.7-8.4 10.8-10.8c6-6 11-10.9 11.1-10.9.2 0 .3 34.9.3 77.5zM226 211.2c-.6.7-1.6 2.1-2.3 3-1 1.5-1.7 1.6-5.1.7-7.1-2-6.9-2.6-6.8 36.3l.1 34.3 5.5 5.1c3.3 3.1 4.7 5 3.5 4.7-1.4-.4-3.1.5-5.5 2.8l-3.4 3.3V434l3.6 6.7c5.8 10.9 4.3 10.3 22.9 10.3 12.3 0 16.5-.3 17.4-1.3.7-1 1.1-26.2 1.1-87.2 0-47.2.1-85.9.2-86.1.2-.1 10.2 5.9 22.3 13.3l22 13.5 7.3-1.7c4-.9 7.6-2.3 7.8-3 .3-.6 1.5-1 2.7-.8 2.6.5 23.2-5 25.3-6.8 2.2-1.8 1.7-4.4-1.3-7.4-4.1-4-53.4-34.9-57.9-36.3-2.6-.7-4.6-2.2-5.7-4.2-1-1.6-2.2-3-2.7-3s-11.4-6.8-24.3-15c-12.9-8.3-24-15-24.6-15-.5 0-1.5.6-2.1 1.2zm23.1 16.3c25.8 16.5 25.6 16.3 23.6 17-.9.3-2.5.8-3.4 1.1-1.1.4 2.1 1.8 8.7 3.8 10.8 3.4 11 3.5 54 31.1l7.5 4.8-10.5 2.9c-8.8 2.3-10.9 2.6-12.8 1.6-2.1-1.1-2.6-.9-4.1 1-.9 1.3-3.8 2.9-6.5 3.7l-4.8 1.5-24.7-15-24.6-15.1-.3 57.2-.2 57.2-4.8-.7c-4.4-.6-5.3-.3-9 2.4-2.3 1.7-4.2 3.2-4.2 3.4 0 .2 2.2-.2 4.9-.9 4.6-1.2 5.2-1.1 9 1.2l4.1 2.4V444h-28.8l-3.1-5.5-3.1-5.5V302.3l2.4-1.3c2.2-1.1 3-.9 8 2 3.1 1.7 5.6 2.9 5.6 2.7 0-.3-1.5-3.7-3.4-7.7-2.3-4.7-5-8.5-8-11.1l-4.6-4.1v-31.9c0-24.9.3-31.9 1.3-31.9.6 0 2.7.4 4.5.9 3 .9 3.3.7 4.8-2 .8-1.7 2.1-2.8 2.8-2.6.7.3 9.5 5.8 19.7 12.2z"/>
        <path d="M614.5 303.1c-4 3.9-7.6 8.1-7.9 9.4-.3 1.3-1.6 2.5-2.9 2.9-1.2.3-6.5 4.8-11.6 10l-9.3 9.6 1.9 3.2c1.1 1.8 8.5 12.9 16.6 24.7l14.7 21.4-7.3 8c-19.7 21.8-20.8 23.2-20.4 25.4.3 1.9 0 2.3-1.9 2.3-1.8 0-7.8 6.1-25.9 26.2-12.9 14.4-23.5 26.6-23.5 27.2 0 .6 3.5 7.4 7.8 15.1 9.6 17.2 10.1 17.4 18.5 8.6 3.3-3.4 5.7-6.9 5.7-8.1 0-1.4.9-2.4 2.8-3.1 1.6-.6 11.5-10.9 24.7-25.9l22-24.8.5 13.5c.5 12.9.6 13.6 3 15.5 2.3 1.8 3.4 2 11.5 1.3 4.9-.4 9.3-.9 9.7-1.1.4-.3 1-2 1.4-3.9.3-2 1.2-3.5 2-3.5 4.1 0 4.2-1.4 4.7-74.5.5-64.3.4-70.3-1.1-72.2-1.7-2.2-24.6-14.3-27.1-14.3-.7 0-4.6 3.2-8.6 7.1zm30.5 10.8c0 1.6-.7 3.4-1.6 4.2-2 1.7-4.4 6.3-4.4 8.6.1 1.3.5 1.1 1.6-1 .8-1.5 2.1-2.7 2.9-2.7 1.3 0 1.5 4.7 1.5 33.3 0 18.4-.3 46.9-.7 63.4-.6 28.9-.7 30-2.7 30.9-1.1.5-2.4 2.4-2.8 4.1-.8 3.2-1 3.3-6.1 3.3-2.9 0-6.2.3-7.4.6l-2.3.6-.2-20-.3-20-26 29.3c-14.3 16.2-26.3 29.4-26.7 29.4-.5.1-.8-2-.8-4.7v-4.7l-2 3.1c-1.1 1.7-2.5 5.8-3.1 9-1 4.9-2 6.7-5.7 10.6l-4.6 4.8-5.8-10.3c-3.1-5.6-5.7-10.8-5.8-11.5 0-1.2 42.8-50 44-50.1.3 0 1.4.6 2.4 1.4 1.8 1.4 1.9 2.1 1 7.5-.6 3.3-.9 6-.7 6 .1 0 1.6-2.7 3.3-6 3-6 3-6.1 1.6-11.1l-1.5-5 14.5-16.2c10-11.2 15.7-16.7 18.3-17.8 2.1-1 4.1-2.3 4.4-3 .3-.8 1.3-3.2 2.2-5.4l1.7-4-3.9 3.7c-4.1 4-9.9 6.6-11.3 5.2-.4-.5-7.3-10.6-15.4-22.4l-14.7-21.4 8.3-8.3c7.8-7.8 8.3-8.2 10.4-6.8 1.9 1.3 2.3 1.2 2.8-.1.3-.9.6-2.7.6-4.1 0-1.7 2-4.6 6.6-9.3l6.6-6.9 10.9 5.5c10.1 5 10.9 5.6 10.9 8.3z"/>
        <path d="m621.1 331-8.4 7.9 7.3 11.3c4 6.2 7.9 12 8.6 12.8 1.2 1.2 1.4-1.8 1.4-19.3 0-11.4-.1-20.7-.2-20.7-.2.1-4.1 3.6-8.7 8zm4.9 13.7v6.8l-3-4.5-3-4.5 2.5-2.3c1.5-1.2 2.8-2.2 3.1-2.2.2 0 .4 3 .4 6.7zM319.8 310.8c-23.5 5.3-30.1 7.2-32 8.9-2.2 2-2.6 2.1-3.9.7-1.3-1.3-2.3-1.3-6.5-.3-2.7.6-5.5 1.9-6.1 2.7-2 2.4-1.8 79 .1 81.8 1.2 1.7 1.2 2.2 0 3.9-1.1 1.4-1.4 5.9-1.4 18.8 0 15.5.2 17.1 2.1 19.8l2 2.9h12.3c9.9 0 12.6-.3 13.6-1.5 1.2-1.4 1.5-1.4 3 0 1.4 1.3 6.5 1.5 34.7 1.5h33l7.7-12.5c4.3-6.9 8-13.4 8.3-14.5.3-1.1-.4-3.2-1.7-5l-2.1-3h-12.2c-9.5 0-12.8.4-14.5 1.6-2 1.4-2.4 1.4-4.4 0-1.9-1.3-5.7-1.6-22-1.6H310v-17h41.5c39.5 0 41.5-.1 42.4-1.9 1.5-2.7-4.5-30.1-7.3-33.6l-2.1-2.6-10.5 1c-8.4.9-10.8 1.5-12.1 3.1-1.6 1.9-1.7 1.9-3.4 0-1.4-1.5-2.6-1.8-5.4-1.4-2 .3-12.5 1.3-23.3 2.3l-19.8 1.7v-16.2l18.3-2.8c10-1.6 19-3.2 20-3.8 1-.5 2.5-.7 3.2-.4 1.5.5 24.8-2.9 26.5-3.9 2.6-1.6.6-5.9-7.6-16.2-15.2-19.3-15.3-19.3-18.2-19.2-1.5 0-16.1 3.1-32.4 6.7zm43 9.3c5.1 6.6 9 12.4 8.8 12.8-.9 1.3-18.3 3.3-22.7 2.6-3-.5-4.3-.3-5.2.8-.8 1.1-6.5 2.4-18.2 4.1-9.3 1.5-18 2.8-19.2 3.1-2.2.5-2.3.9-2.3 14 0 12.2.2 13.5 1.8 13.5.9 0 11.4-.9 23.2-2 27.9-2.6 26-2.6 26 .9 0 2.2-.9 3.7-3.5 5.7-2 1.5-3.4 2.9-3.1 3.1.2.3 3-.2 6-1.1 5.1-1.5 5.8-2.1 8.1-6.6s2.8-4.9 6.7-5.4c10.3-1.2 12.8-1.4 13.3-.6.4.7 5.5 23.8 5.5 25.2 0 .5-18.9.8-42 .8h-42v29.1l22.1-.3 22-.3-.4 2.5c-.3 1.5.3 3.9 1.6 6l2.2 3.5.3-3.7c.3-2.9 1-4.1 4.2-6.2 3.6-2.4 4.9-2.6 14-2.6 5.5 0 10 .3 10 .7 0 .4-3 5.8-6.7 12l-6.8 11.2-31.3.1h-31.3l2.1-3 2.1-3h-2.6c-3 0-7.5 2.1-9.4 4.4-1.1 1.3-3.5 1.6-11.7 1.6H274v-31.9l4.5-2.7c2.5-1.4 5-3.5 5.6-4.6 1-1.8.8-1.9-2.4-1.3-2 .4-4.4.2-5.6-.4-2.1-1.2-2.1-1.6-2.1-39v-37.9l2.3-.6c4.8-1.3 4.9-1.1 4.2 7.2-.7 7.2-.5 8.2 1.9 12.8 2.5 4.7 2.7 4.3 1.1-2.9-.8-3.9 1.1-10.1 4.8-15.7l3.1-4.7 29.6-6.6c16.2-3.6 30.2-6.5 31-6.6.8 0 5.7 5.4 10.8 12zM539.5 319.9c-8.9 7.4-19.2 18.3-24.3 25.8-7.8 11.5-13.7 25.9-13.1 32.1.2 1.5-.3 3.8-1 5.1-1 1.8-1.2 5.1-.8 12.5 1 17.2 6.5 32.4 18.3 50.1 6.1 9.3 10.7 14.5 12.7 14.5.8 0 3.1-1.9 5.2-4.3 2.1-2.3 6.3-7.1 9.5-10.7 22.8-25.8 38-43.6 38-44.6 0-.7.6-1.4 1.4-1.6 1.9-.4 12.6-13 12.6-14.8 0-1.5-20.1-30.4-24-34.6-1.1-1.2-2-2.6-2-3 0-1.4-14.8-21.7-16.5-22.7-.8-.4-1.5-1.6-1.5-2.6 0-2.5-3.8-7.1-5.8-7.1-.9 0-4.8 2.7-8.7 5.9zm4.6 7.9-3 7.2 2.7-1.5c1.5-.8 4.1-2.3 5.7-3.4 1.7-1.2 3.5-2.1 4.1-2.1 1 0 11.4 14.1 11.4 15.6 0 .4-.7 1.2-1.7 1.9-1.4 1.1-1 1.6 3.3 4 4.2 2.3 6.6 5.1 14.7 16.6 5.3 7.6 9.7 14.4 9.7 15.1-.1.7-2.1 3.5-4.6 6.2-5.1 5.6-7 5.2-6.6-1.2.4-6.2-1.8-1.2-2.6 6.1l-.8 6.3-17.8 20.3c-15.7 17.9-18.1 20.2-20.2 19.7-2.2-.6-2.4-.3-2.4 2.7 0 2.4-1 4.5-3.4 7.3l-3.4 3.9-2.1-2.5c-7.4-8.7-15.4-23.2-18.9-34-4.3-13.4-5.7-29.6-2.7-32 1.2-1 1.4-2.4 1-5.4-1-7.1 5.6-22.3 15-34.6 5.2-6.7 24.8-25.6 25.2-24.3.2.5-1 4.2-2.6 8.1z"/>
        <path d="M542.1 356.1c-5.6 5.3-9.5 11.7-12.3 19.8-3.1 9-3.1 22.2 0 30.1 2 5 2 5.6.6 7.8-.8 1.3-2.2 4.2-3 6.5-1.2 3.8-1.2 4 .1 2.2.9-1.1 10-10.7 20.3-21.3 10.3-10.6 18.7-19.8 18.7-20.5 0-1.4-18.7-28.6-19.6-28.7-.4 0-2.5 1.8-4.8 4.1zm13.1 14.7 6.6 9.8-12.5 13.2c-8.7 9.2-12.9 13-13.6 12.3-1.6-1.6-2.1-17.4-.7-22.8.6-2.7 2.3-7 3.6-9.7 2.6-5.1 8.1-12.6 9.2-12.6.4 0 3.7 4.4 7.4 9.8z"/>
    </g>
    <g fill="#ff0">
        <path d="M221.8 460.7c-3.7.2-7.1.9-7.7 1.7-.7.8-1.1 28.2-1.1 87-.1 77.8 0 86 1.5 88.3 1.5 2.2 1.5 2.7.2 4.1-1 1.2-1.6 5.3-2 14-.5 12-.5 12.3 2 15.2l2.5 3h32.3c26.1 0 32.7-.3 33.7-1.4 1.1-1.1 1.6-1.1 3.4.1 1.7 1 6 1.3 19.5 1.1l17.4-.3 8.7-17.5c4.8-9.6 8.7-18.2 8.8-19 0-.8-1.1-2.8-2.5-4.3l-2.6-2.7H256v-39.3c0-32.8-.2-39.6-1.5-41.3-1.2-1.9-1.2-2.4 0-4 1.1-1.5 1.4-6.2 1.5-22.2V503h11c9.3 0 11.3-.3 12.8-1.8 1.8-1.8 1.9-1.8 4.2 0 2 1.6 4.5 1.8 30.4 1.8 21.1 0 28.6-.3 29.8-1.3 2.1-1.6 8.8-13.3 9.2-16 .1-1.1.8-2.3 1.4-2.5.6-.2 3-3.7 5.2-7.8 4.3-7.7 4.5-9.8 1.1-12.8-1.7-1.5-5.8-1.7-42.2-1.6-39.7 0-40.4 0-42.1 2.1l-1.8 2.1-3.4-2.1c-3-1.9-4.8-2.1-19.9-2.1-10.1 0-16.8.4-17.2 1-.4.7-1.4.5-2.8-.5-1.2-.8-2.4-1.4-2.7-1.3-.3.1-3.5.3-7.2.5zm7.2 5.2c0 .5-.7 2.7-1.5 5-2.3 6.6-1.9 18.2.9 28.6 2.8 10.5 3.1 9.7 1.1-3.9-1.8-12.6-.7-19.1 4.2-25.8l3.5-4.8H266.9l5.8 3.5c3.2 1.9 6.1 3.5 6.6 3.5.4 0 .7-1.6.7-3.5V465h38.5c21.2 0 38.5.2 38.5.4 0 1.2-5.5 9.8-6.4 10.2-.7.3-3.1-.2-5.4-1-4.1-1.5-4.6-1.4-10.5.9l-6.2 2.4h6.1c4.7.1 6.8.6 9 2.3 1.6 1.2 3.1 2.3 3.2 2.4.2.1-1.3 3.2-3.3 6.8l-3.7 6.6h-53.4l-5.4-3.5c-3-1.9-6.5-3.5-7.8-3.5-2.4 0-2.4.1-.8 2.5.9 1.3 1.6 2.9 1.6 3.5 0 .6-4.4 1-12 1h-12v21.2l-.1 21.3-3.5 5.5-3.5 5.5 3.6.3 3.5.3v84.8l42-.2c23.1-.1 42 .1 42 .4 0 .4-3.4 7.7-7.6 16.3l-7.6 15.6H287.1l-.7-3.5c-.5-2.9-.1-4.3 2-7.5 1.4-2.2 2.6-4.2 2.6-4.4 0-.3-2.6 1-5.7 2.7-5.5 3.1-5.8 3.5-6.3 7.7l-.5 4.5-30.7.2-30.8.2v-21.4l6.5-9 6.4-9-.1-8v-8l-1.2 6c-1.2 6.8-4.3 11.8-8.7 14l-2.9 1.6V465h6c3.3 0 6 .4 6 .9zM597.5 480.5c-1.4 1.3-2.5 3.5-2.5 4.9 0 1.9-.4 2.4-1.6 1.9-1-.4-3.9 1.8-8.7 6.8-10.3 10.5-31.7 33.1-32.3 34.1-.3.5.3 2.4 1.4 4.2l2 3.4-3 .6c-1.7.3-4.3.6-5.8.6-2.1 0-4.5 1.8-10.1 7.6-4.1 4.1-7.8 8.2-8.2 9-.6 1 1.1 5.7 5.2 14.2 6.1 12.9 8.9 17.2 11.3 17.2.7 0 5-3.9 9.5-8.6 4.5-4.7 8.6-8.4 9.2-8.2.5.1 9.4 6.9 19.8 14.9l18.9 14.7 2.2 18.3c1.2 10.1 2.2 19.8 2.2 21.5 0 1.6.5 3.5 1.2 4.2.7.7 1.1 2.9 1 5-.2 2 .2 8.6.9 14.7 1.7 15.9 1.1 15.5 21.5 15.5 18 0 20-.6 19-5.9-.3-1.4-4.9-44.2-10.2-95.1-8.4-80.2-9.9-92.9-11.6-95.3l-1.9-2.7h-13.5c-13 0-13.6.1-15.9 2.5zm36.7 93.5c5.3 50.3 9.7 92.5 9.7 93.7.1 2.3 0 2.3-14.3 2.3h-14.3l-1.2-8.8c-1.5-11.9-1.4-12.9 1-16.9 2.3-3.7 1.6-5.2-2.1-5.3-1.3 0-2-3.9-3.9-21.3-1.3-11.6-2.7-21.9-3-22.8-.3-.9-10.7-9.4-22.9-18.9l-22.4-17.3-8.8 9.4-8.7 9.4-5.2-10.2c-2.8-5.7-5.1-10.8-5.1-11.4 0-.6 2.8-4.1 6.1-7.9 6-6.7 6.3-6.8 11.8-7.2 4.8-.4 6.3 0 10.5 2.4 2.6 1.6 5 2.7 5.3 2.5.2-.3-.4-3.4-1.3-7-1.5-6-1.9-6.6-5.2-7.9l-3.7-1.4 17.9-18.7c9.8-10.3 18.1-18.7 18.4-18.7.3 0 2.1 1.2 4 2.7l3.5 2.6-.5-6.6c-.4-4.1-.2-6.9.6-7.7.7-.7 5.1-1 12.6-.8l11.4.3z"/>
        <path d="M590.5 529.1c-7.4 7.4-11.6 12.2-10.9 12.7.6.4 5.9 4 11.6 8.1l10.5 7.4 1.6 7.2c1.3 5.7 3 9.4 7.7 16.6 3.3 5.1 6 9.1 6 8.8 0-.3-2.2-5.4-5-11.2-3.2-6.8-5-11.9-5-14.3 0-3.8-4-46.7-4.4-47.1-.1-.1-5.6 5.2-12.1 11.8zm11 15.8c.7 8.2 1.4 8.1-7.8 1.8l-5.8-4.1 5.8-5.8 5.8-5.9.6 3.3c.4 1.8 1 6.6 1.4 10.7zM409.6 503.2c-.8 1.3-4.1 8.4-7.4 15.9-5.2 11.7-6 14.2-5.5 17.8.5 3.7.4 4.1-1.6 4.1-1.1 0-2.6.8-3.2 1.7-1.8 3-56.1 124.7-56.6 127-.4 1.7 2.2 4.9 12.3 15.5 13.2 13.8 16.4 15.8 19.1 12.2.8-1 2.6-1.8 4.5-1.8l3.2-.1 7.3-19.9c4-10.9 7.5-20.1 7.7-20.4.3-.2 3.9 1 8 2.8 6.3 2.8 7.6 3.8 8.1 6.2.4 1.6.5 11.3.4 21.7-.3 13.6 0 19.3.8 20.3.9 1 1 2.4.3 4.9-.5 1.9-1.1 10.1-1.3 18.2l-.3 14.9 16 17.5c8.9 9.7 17.1 18.9 18.4 20.4 2.5 3 5.9 3.8 8 1.7.9-.9 1.2-33.2 1.2-139.1 0-137.8 0-137.9-2.1-140.8-1.8-2.6-2.6-2.9-7.2-2.9-2.9 0-7.3.7-9.9 1.7-4.3 1.5-4.7 1.5-6.3 0-1.1-1.2-3.3-1.7-7-1.7-4.6 0-5.7.4-6.9 2.2zm10.4 2c0 .2-.7 2.8-1.5 5.8s-1.5 8.4-1.5 12c0 5.6.6 7.9 4.7 16.8 2.5 5.6 4.8 10.1 4.9 9.9.2-.2-.8-5.8-2.2-12.6l-2.6-12.3 2.2-8.2 2.2-8.3 4.6-1.6c2.6-1 6.2-1.7 8-1.7h3.2v129.5c0 74.9-.4 129.5-.9 129.5s-1.7-2.9-2.6-6.5c-1-3.6-2-6.3-2.3-6-.3.3-1.4-.3-2.6-1.2-1.5-1.4-1.3-.9.6 1.7 2.8 3.9 4.7 10.6 2.5 9.4-1.3-.8.2 1.4 3.6 5.2 1.3 1.5 1.7 3.4 1.5 6.2l-.3 4-15.7-17.2-15.7-17.1-.1-13.5c0-13.1.4-15.8 4.5-29.1l.7-2.4-2.6 2.4-2.6 2.4-.2-22.7-.3-22.8-11.9-5.4c-6.6-3-12.3-5.1-12.7-4.7-.4.5-4 9.8-8 20.8-3.9 11-7.3 20.2-7.6 20.5-.2.2-.3-2.7-.2-6.5.1-4.1-.5-8.7-1.3-11l-1.5-4-.5 9.1c-.3 7.2-.9 9.8-2.8 12.8l-2.3 3.8-10.3-10.8c-7.6-8-10.2-11.4-9.9-12.9.2-1.1 12.6-29.2 27.4-62.5l27-60.5 3.3-.5c1.8-.3 3.2-1 3.1-1.6-1.3-7.1-.4-11.3 4.7-22.9 7.2-16.5 6.6-15.5 10.5-15.5 1.9 0 3.5.1 3.5.2z"/>
        <path d="M405.5 595c-8.8 22.6-8.3 22.2-14.5 11.6-3.4-5.9-3.5-5.8-1.5 1.2 2.9 9.7 5 12.1 14.3 16.3 4.7 2.2 8.6 3.8 8.7 3.7.4-.5 1.6-52.8 1.2-52.8-.2 0-3.9 9-8.2 20zm3.5 19.5c0 7.5 0 7.6-2.2 6.4-1.3-.6-2.5-1.3-2.7-1.5-.3-.3 4.2-12.4 4.6-12.4.2 0 .3 3.4.3 7.5zM474.8 502.7l-10.7.4-3.6 4.1-3.5 4.2v11.8c0 7.6.4 12.5 1.2 13.8 1 1.5 1 2.2 0 3.2-.9.9-1.2 18.7-1.2 77.9v76.7l2.4 2.9 2.4 2.8-2.4 2.8-2.4 2.8v36.8c0 35.7.1 36.9 2.1 39.5 1.1 1.4 2.8 2.6 3.8 2.6 1.5 0 92.4-75 100-82.5l2.5-2.4-1.7-18.2c-1.1-11.6-2.2-19-3.1-20.4-1.1-1.6-1.2-2.5-.4-3.3 1.7-1.7-1.8-39.8-3.9-43.2-.8-1.4-6.4-5.3-12.3-8.8-5.9-3.4-11.2-6.8-11.7-7.5-.6-.6-6.3-13.8-12.7-29.2-6.5-15.4-12.9-30-14.2-32.4-1.3-2.4-2.4-4.9-2.4-5.5 0-2.4-10.2-25.2-12.2-27.3-1.2-1.3-2.9-2.2-3.7-2.1-.9.1-6.4.4-12.3.5zm17.2 14.9c4.2 10.4 4.3 10.7 2.6 13.3-3.6 5.5-4.7 9.3-4.4 14.9l.3 5.7 2.4-6.8c1.4-3.7 3.1-6.8 3.8-6.9.7 0 1.8-.1 2.5-.2.6-.1 7.3 14.3 14.7 31.8l13.6 31.9 12 7.1 12 7.2 1.7 17.9 1.6 18-2.4 2.2c-1.3 1.2-3 2.6-3.8 3-.8.5-2.7 3.5-4.1 6.7-1.7 3.8-2.1 5.5-1.1 4.7 1.2-1 1.7-.5 3.3 3.1 1.2 2.7 1.8 6 1.7 8.8l-.3 4.5 1-4c.8-2.9.7-5.9-.2-10.7-1-5.4-1-7 .1-8.3 1.5-1.8 3.1-1.9 5.2-.3 1.2 1 1.9 4.5 2.8 14.3.6 7.1 1.3 14.6 1.6 16.7l.5 3.6-48.1 40.4c-26.5 22.1-48.6 40.4-49.1 40.6-.5.2-.9-14.6-.9-34.5v-34.9l4.5-4.4c2.5-2.4 4.5-4.7 4.5-5 0-.3-2-1.6-4.5-2.8L461 693v-75.1c0-68.1.1-75.1 1.6-74.5.9.3 2 .6 2.5.6s2.8 1.7 5 3.7l4.2 3.8-2.2-4.4c-1.3-2.4-4.3-6.5-6.7-9.1l-4.4-4.7V523c0-9.9.1-10.5 2.7-13.2 2.6-2.7 3-2.8 13.3-2.8h10.7z"/>
        <path d="M486.5 601.2c.6 24.4.5 27.1-1.2 31-1.3 3.1-1.7 5.8-1.3 9.3l.5 5 .6-5.2c.9-8.2 6.2-15.4 13.3-18.3 3.1-1.2 5.6-2.5 5.6-2.9 0-.3-4.1-10.7-9-23.1l-9.1-22.5zm10.4 11.5 2.1 5.3-3 1.5-3 1.6.1-8.8c0-5.7.3-8.1.9-6.8.4 1.1 1.7 4.4 2.9 7.2zM502.8 648.3l-14.8 7v28.9c0 28.5 0 28.9-2.5 34.8-1.9 4.5-2.5 7.6-2.4 12.7 0 4 .3 6 .8 4.9.6-1.5 1-1.1 2.6 2.3 1 2.3 1.9 4 2.1 3.8.2-.1-.4-3-1.2-6.2-2.2-8.2-1.4-11.9 4.2-21.9 4.8-8.3 5.4-9 22.1-22.2l17.1-13.5-.4-9.7c-.3-5.3-.7-12.4-1-15.8l-.5-6-5.7-3.1-5.7-3zM523 651c2.4 1.8 2.5 2.5 3 14l.5 12.1-15.7 12.4L495 702v-41.5l11.8-5.7c6.4-3.1 12.2-5.6 12.7-5.7.6 0 2.1.8 3.5 1.9zM330.6 506.7c-7.1.2-12.5.8-13.4 1.5-.7.6-4.2 7-7.6 14.2-3.5 7.2-12.5 25.5-20 40.7-7.5 15.2-13.6 28.4-13.6 29.2 0 .8-.4 1.7-.8 1.9-1.1.4-10.2 18-10.2 19.7 0 .7.9 2.6 2.1 4.2l2 2.9h20.3c15.1 0 20.6-.3 21.4-1.3.5-.6 6.7-13.8 13.7-29.2 7-15.4 12.9-28.2 13.1-28.4.2-.2 4.7 4.1 10 9.7 7 7.5 10.2 10.2 12 10.2 2.2 0 3.3-1.8 9.9-15.6 4.1-8.7 7.5-16.1 7.5-16.6 0-.6-6.8-10.2-15.2-21.4-13.1-17.8-17.7-23.1-19-22.2-.2.1-5.7.4-12.2.5zM345 513c.8 1.4.8 3.1 0 5.8-1.4 5.2-1.3 5.5 1.5 3.6 1.4-.9 3.1-1.4 3.7-1.1.7.2 5.5 6.2 10.7 13.2l9.4 12.7-5.7 12.1c-3.1 6.7-6.1 12.9-6.7 13.7-.8 1.2-3.1-.7-12.2-10.2-9.8-10.1-11.9-11.8-15.7-12.7-2.4-.5-5.7-.7-7.4-.4l-3 .6 3.7 1.1c2.4.7 4.5 2.2 5.7 4.1l1.9 3-12.6 27.8-12.6 27.7h-17.9c-11 0-17.8-.4-17.8-1 0-.5 1.6-4.3 3.6-8.3l3.7-7.4 7.8-2.3c4.3-1.2 8.6-2.9 9.6-3.7 1.7-1.4 1.7-1.4-.2-.8-3.7 1.2-11 1.6-12.3.7-1.1-.7 2.7-9.3 17.5-39.3 10.4-21.1 19.2-39 19.6-39.7.6-.8 4.3-1.2 12.7-1.2 10.9 0 12 .2 13 2zM665.5 458.7c-2.7.2-5.4.9-6 1.4-.6.6-1.2 29.9-1.6 81.2-.7 85.6-.8 83.6 4 85.2 2.1.6 37.2-10.1 38.4-11.8.5-.7.6-23.7.3-52.1-.3-28-.6-61.8-.6-75.1v-24.2l-2.5-2.7c-2.1-2.3-3-2.6-6.2-2.1-6.3 1.1-10.7 2.6-12 4.3-1.1 1.3-1.6 1.1-4.2-1.7-1.6-1.7-3.3-3-3.8-2.9-.4.1-3 .3-5.8.5zm7.6 20.3c1 8.5 2.5 19.8 3.4 25l1.7 9.5-2.8 12.6-2.7 12.6 3.1 16.5 3.1 16.5-2 12.3c-1.1 6.7-1.8 12.4-1.6 12.6.2.2 2-5.6 4.1-12.9l3.7-13.2-1.9-16.5-1.9-16.5 2.9-12.3 2.8-12.4-3-19.6c-2.9-18.6-2.9-19.8-1.4-23.8 1.7-4.6 4.5-6.4 9.9-6.4h3.5v146.6l-15.2 4.7c-8.4 2.6-15.8 4.7-16.3 4.7-1.2 0-1-105.8.1-138.8l.6-17.3 4.1.3 4.1.3zM676 631.2c-8.5 2.1-16 4.4-16.7 5.1-.8.8-1.2 6.8-1.4 17.8-.3 14.4-.1 17 1.4 19.3l1.7 2.6h18.3c12.9 0 18.7-.4 19.5-1.2.9-.9 1.2-7.1 1.2-21.9 0-19.4-.1-20.8-2.1-23.3-1.2-1.5-2.9-2.5-4.2-2.5-1.2.1-9.2 1.9-17.7 4.1zm17.8 19.4-.3 17.9-15.7.3-15.8.3V639l2.8-.7c1.5-.3 8.3-2.1 15.2-3.8 6.9-1.8 12.8-2.9 13.3-2.5.4.3.6 8.7.5 18.6z"/>
    </g>
</svg>
